<svg xmlns="http://www.w3.org/2000/svg" viewBox="0 0 200 200" width="64" height="64" preserveAspectRatio="xMidYMid meet">
    <defs>
        <linearGradient id="fishGradient1" x1="0%" y1="0%" x2="100%" y2="100%">
            <stop offset="0%" style="stop-color:#4a325c;stop-opacity:1" />
            <stop offset="100%" style="stop-color:#ff69b4;stop-opacity:1" />
        </linearGradient>
        <linearGradient id="fishGradient2" x1="0%" y1="0%" x2="100%" y2="100%">
            <stop offset="0%" style="stop-color:#4a325c;stop-opacity:1" />
            <stop offset="100%" style="stop-color:#ff69b4;stop-opacity:1" />
        </linearGradient>
        <linearGradient id="fishGradient3" x1="0%" y1="0%" x2="100%" y2="100%">
            <stop offset="0%" style="stop-color:#4a325c;stop-opacity:1" />
            <stop offset="100%" style="stop-color:#ff69b4;stop-opacity:1" />
        </linearGradient>
    </defs>
    <!-- Body of the fish -->
    <ellipse cx="100" cy="100" rx="80" ry="50" fill="url(#fishGradient1)" />
    <!-- Tail of the fish -->
    <polygon points="20,100 0,80 0,120" fill="url(#fishGradient2)" />
    <!-- Eye of the fish -->
    <circle cx="140" cy="85" r="5" fill="#000" />
    <!-- Fin of the fish -->
    <polygon points="100,50 80,70 120,70" fill="url(#fishGradient2)" />
    <!-- Additional details to make the fish cooler -->
    <!-- Top fin -->
    <polygon points="100,30 90,50 110,50" fill="url(#fishGradient3)" />
    <!-- Bottom fin -->
    <polygon points="100,170 90,150 110,150" fill="url(#fishGradient3)" />
    <!-- Gills -->
    <path d="M120,100 Q110,90 100,100 Q110,110 120,100" fill="none" stroke="#000" stroke-width="2" />
    <path d="M110,110 Q100,100 90,110 Q100,120 110,110" fill="none" stroke="#000" stroke-width="2" />
    <!-- Text -->
    <text x="50" y="190" font-family="Comic Sans MS" font-size="20" fill="#000">matc.ad</text>
</svg>